<?xml version="1.0" encoding="utf-8"?>
<!-- Generator: Adobe Illustrator 13.0.0, SVG Export Plug-In . SVG Version: 6.00 Build 14948)  -->
<!DOCTYPE svg PUBLIC "-//W3C//DTD SVG 1.1//EN" "http://www.w3.org/Graphics/SVG/1.1/DTD/svg11.dtd">
<svg version="1.1" id="Layer_1" xmlns="http://www.w3.org/2000/svg" xmlns:xlink="http://www.w3.org/1999/xlink" x="0px" y="0px"
	 width="341.02px" height="236.093px" viewBox="0 0 341.02 236.093" enable-background="new 0 0 341.02 236.093"
	 xml:space="preserve">
<g opacity="0.69">
	<g>
		<g>
			<path fill-rule="evenodd" clip-rule="evenodd" fill="#979056" d="M47.728,7.299c2.156-1.163,2.593,2.916,0.2,2.743
				C46.552,9.937,46.507,7.953,47.728,7.299z"/>
			<path fill-rule="evenodd" clip-rule="evenodd" fill="#979056" d="M60.065,7.969c2.096-1.873,9.936,1.062,9.309,3.222
				c-0.213,0.74-2.193,0.951-3.059,1.431c-5.734,3.188-9.364,6.085-14.764,10.1c-1.735,1.292-4.189,2.863-6.211,4.581
				c0.371-0.318-0.625,1.868-2.184,1.462c-0.584-0.155-2.728-7.688-2.172-8.621c0.943-1.589,7.731,1.146,9.028,0.22
				c2.347-1.664-0.495-5.729,0.97-6.714c2.382-1.613,5.402,2.884,7.65,1.45C60.636,13.817,57.934,9.875,60.065,7.969z
				 M61.164,13.817c0.373,0.202,3.692-2.473,3.634-2.438c3.999-2.411-2.923-3.065-3.556-2.345
				C60.949,9.36,60.671,13.553,61.164,13.817z M52.538,19.082c0.187,0.064,3.657-2.649,3.64-2.442
				c0.064-0.887-4.218-1.242-4.14-1.337C51.323,16.15,51.926,18.87,52.538,19.082z M43.904,26.308
				c0.307,0.169,4.31-4.195,4.265-4.299c-0.382-0.829-4.575-0.177-4.649-0.072C43.167,22.445,43.784,26.246,43.904,26.308z"/>
			<path fill-rule="evenodd" clip-rule="evenodd" fill="#979056" d="M77.919,5.665C87.283,1.915,94.83-0.032,107.542,0
				c2.719,0.008,5.495,1.584,8.744,2.26c1.739,0.363,8.335,1.731,8.288,2.673c-0.05,1.009-3.288,0.97-4.472,1.557
				c-3.284,1.625-10.181,5.847-13.258,8.271c-3.715,2.927,0.311-2.816,3.05-4.511c2.443-1.516,10.338-4.575,7.06-5.66
				c-3.754-1.24-13.681-2.475-19.144-1.805C96.74,2.918,88.844,3.33,87.144,5.548c-0.718,0.943,11.17-0.73,11.499-0.776
				c2.59-0.346,13.549-1.155,13.956,0.782c0.326,1.533-2.667,2.477-3.684,3.298c-0.656,0.522-2.543,3.259-4.102,2.852
				c-2.618-0.688,9.886-5.27,2.677-5.812c-4.053-0.299-11.645,0.363-16.395,1.33c-2.127,0.431-4.963,1.895-5.571,0.751
				c-0.693-1.292,1.502-0.802,0.505-1.264c-2.912-1.341-8.323,3.393-11.039,2.877C70.854,8.796,76.437,6.263,77.919,5.665z"/>
			<path fill-rule="evenodd" clip-rule="evenodd" fill="#979056" d="M66.876,13.583C66.731,13.507,67.096,13.703,66.876,13.583
				L66.876,13.583z"/>
			<path fill-rule="evenodd" clip-rule="evenodd" fill="#979056" d="M90.396,16.94c0.194-0.332,0.402-0.373,0.807-0.231
				c2.808,0.982,12.373,6.293,13.755,8.669c3.133,5.359-4.915-2.294-7.17-3.832C96.091,20.39,89.76,18.041,90.396,16.94z"/>
			<path fill-rule="evenodd" clip-rule="evenodd" fill="#979056" d="M37.401,32.925c4.81-2.281,0.307,3.68-0.078,4.781
				c-1.163,3.349-0.256,5.332,0.446,9.67c0.825,5.072-2.384,9.529-6.916,11.218c-3.21,1.195-7.774,1.345-6.454,5.765
				c1.157,3.852,8.931,3.897,8.141,10.269c-0.664,5.414-14.709,3.512-10.882,11.511c1.122,2.343,6.301,2.874,4.775,7.594
				c-0.637,1.96-4.794,5.342-6.555,4.393c-3.054-1.641-1.464-17.259-1.316-19.786c0.924-15.526,8.585-34.706,18.378-44.998
				C37.106,33.164,37.079,33.081,37.401,32.925z"/>
			<path fill-rule="evenodd" clip-rule="evenodd" fill="#979056" d="M96.115,16.704c1.021-1.766,9.599,3.847,8.611,4.82
				C104.046,22.201,95.983,16.935,96.115,16.704z"/>
			<path fill-rule="evenodd" clip-rule="evenodd" fill="#979056" d="M67.606,26.254C67.461,26.176,67.832,26.372,67.606,26.254
				L67.606,26.254z"/>
			<path fill-rule="evenodd" clip-rule="evenodd" fill="#979056" d="M66.149,27.226c-3.063,3.122-7.159,6.879-10.647,10.323
				c-1.003,1-3.869,4.047-3.851,4.742c-0.01-0.392,2.112,3.985,1.986,3.911c4.057,2.287,5.932-4.969,6.764-6.691
				c2.147-4.433,5.922-9.762,6.462-10.808c-0.012,0.021-0.062-3.007,0.967-1.671c0.442,0.58-3.583,8.389-4.128,9.855
				c-0.26,0.699-2.642,9.01-3.857,9.783c-1.545,0.979-5.033-0.074-6.031,1.165c-0.452,0.555,4.191,1.955,3.178,3.011
				c-0.26,0.272-3.905-0.522-5.29-1.289c-0.604-0.338-3.573-3.098-3.321-3.527c0.534-0.934,3.261,1.763,3.801,1.151
				c0.429-0.483-1.867-4.531-1.437-6.029c0.464-1.609,2.625-2.741,4.267-4.301C58.412,33.63,61.541,29.179,66.149,27.226z"/>
			<path fill-rule="evenodd" clip-rule="evenodd" fill="#979056" d="M90.249,21.461c0.256-1.221,5.272,0.97,6.646,2.019
				c0.338,0.26,2.551,2.549,2.299,2.983c-0.631,1.093-4.18-2.098-5.117-2.737C93.743,23.503,90.123,22.03,90.249,21.461z"/>
			<path fill-rule="evenodd" clip-rule="evenodd" fill="#979056" d="M76.925,72.022c-0.194-0.063,0.223,0.729,0.306,0.812
				c-0.083-0.083,0.625,2.5,0.729,2.812c0.394,1.19,1.788,6.194,0.856,7.035c-0.208,0.183-7.028,0.258-8.156-0.187
				c-0.675-0.268-2.582-2.103-2.908-3.088c0.159,0.48,1.324-0.121,1.219,0.205c0.2-0.633-1.809-3.563-1.479-5.173
				c0.357-1.726,3.381-3.282,3.389-4.328c0.012-1.161-3.083-2.928-3.323-3.529c-0.447-1.116-0.365-4.827,0.322-5.969
				c0.435-0.724,3.501-1.355,3.907-2.523c0.064-0.183-2.33-3.993-2.401-4.346c-0.562-2.77,0.183-6.644,3.16-8.182
				c3.203-1.656,2.318-0.136,1.397-3.203c-0.225-0.736-0.27-4.583,0.926-5.864c0.96-1.021,4.097-0.6,5.202-2.048
				c-0.146,0.19-2.086-5.13-1.124-6.957c2.456-4.631,12.628-3.29,13.459-0.485c0.497,1.683-2.893,3.655-3.974,5.33
				C81.545,43.046,77.248,58.538,76.925,72.022z M85.668,34.81c-0.26,0.26-3.381-3.224-3.467-4.047
				c-0.666-6.285,7.039-1.426,8.094-2.038c2.081-1.197-2.508-3.323-3.591-3.451c-1.333-0.153-4.528,0.774-5.155,1.196
				C76.91,29.594,83.141,37.273,85.668,34.81z M88.989,30.223c-0.219-1.557-3.674-1.871-4.8-0.592
				C81.281,32.939,89.477,33.746,88.989,30.223z M80.396,36.6c1.316-0.14,3.599,1.644,3.848,0.297
				c0.186-1.042-4.212-1.514-5.556-1.213c-5.528,1.252-4.072,9.143,0.078,8.377C74.813,41.429,76.964,36.961,80.396,36.6z
				 M81.103,43.116c0.943-0.351,1.774-4.206,1.639-4.389c-0.47-0.629-2.955-0.38-3.7,0.215
				C76.998,40.569,79.321,43.778,81.103,43.116z M71.465,55.948c0.147,0.223,3.034,2.153,4.066,1.072
				c0.008-0.004-2.985-3.261-2.906-3.084c-3.098-7.157,7.246-5.495,6.881-7.285c-0.412-2.036-5.791-0.326-6.594,0.204
				C70.584,48.396,69.171,52.575,71.465,55.948z M76.693,55.011c0.9-0.353,3.261-7.077-0.947-5.326
				C72.166,51.173,74.798,55.764,76.693,55.011z M72.259,60.76c1.553-0.842,5.225-0.8,3.715-2.186
				c-2.186-2.005-7.469,2.785-7.555,4.959c-0.132,3.598,3.436,7.079,6.375,4.062C69.328,68.899,68.55,62.763,72.259,60.76z
				 M75.491,65.994c0.126-0.142-0.406-2.281-0.398-2.407c0.07-1.307,0.163-3.135-2.392-1.275
				C69.619,64.563,73.612,68.13,75.491,65.994z M71.056,76.782c-0.99-2.746,4.255-5.645,4.088-5.926
				c-0.722-1.248-4.794,0.998-5.468,2.117c-2.504,4.182,2.444,9.403,6.838,6.725C73.77,78.906,71.985,79.379,71.056,76.782z
				 M75.119,77.857c0.978-1.075-0.464-4.375-1.645-3.729C70.809,75.59,74.239,78.828,75.119,77.857z"/>
			<path fill-rule="evenodd" clip-rule="evenodd" fill="#979056" d="M48.302,50.811c0.672-1.171,5.521,1.595,4.507,2.632
				C51.917,54.349,47.918,51.472,48.302,50.811z"/>
			<path fill-rule="evenodd" clip-rule="evenodd" fill="#979056" d="M46.451,57.496c1.831-2.266,3.475,2.723,0.664,2.329
				C46.035,59.677,46.008,58.045,46.451,57.496z"/>
			<path fill-rule="evenodd" clip-rule="evenodd" fill="#979056" d="M45.298,62.583c2.482-2.286,2.325,4.477-0.132,2.559
				C43.869,64.132,44.743,63.099,45.298,62.583z"/>
			<path fill-rule="evenodd" clip-rule="evenodd" fill="#979056" d="M43.762,68.342c1.19-2.067,3.779,0.438,2.463,1.535
				C45.113,70.811,43.248,69.237,43.762,68.342z"/>
			<path fill-rule="evenodd" clip-rule="evenodd" fill="#979056" d="M43.951,73.049c1.553-1.405,2.556,1.122,2.003,1.947
				C45.218,76.097,42.005,74.804,43.951,73.049z"/>
			<path fill-rule="evenodd" clip-rule="evenodd" fill="#979056" d="M44.556,78.197c3.191-2.048,0.487,7.615,1.906,8.692
				c0.337,0.258,3.901-3.257,4.592-2.154c0.631,1.007-4.588,4.73-4.996,4.788c-1.465,0.2-8.094-3.791-5.982-4.73
				c0.631-0.273,3.981,2.161,4.29,1.853C45.391,85.637,42.771,79.338,44.556,78.197z"/>
			<path fill-rule="evenodd" clip-rule="evenodd" fill="#979056" d="M40.95,89.861c1.149-0.912,3.304,3.805,5.072,3.595
				c0.907-0.112,3.518-5.226,4.952-3.937c0.92,0.827-4.053,5.67-4.433,5.744C45.771,95.415,38.387,91.905,40.95,89.861z"/>
			<path fill-rule="evenodd" clip-rule="evenodd" fill="#979056" d="M41.264,97.056c0.885-1.529,3.828,1.53,5.214,1.025
				c0.602-0.22,0.644-1.297,0.774-1.338c-0.099,0.033,1.283,0.786,1.099,0.806c0.72-0.069,3.154-5.757,4.102-2.854
				c0.271,0.841-3.18,5.656-4.36,6.004C47.188,100.966,40.829,97.806,41.264,97.056z"/>
			<path fill-rule="evenodd" clip-rule="evenodd" fill="#979056" d="M20.215,103.351c0.684-0.266,4.511-1.401,3.847,0.301
				c0.057-0.146-6.349,2.407-6.609,2.169C16.403,104.856,18.278,104.099,20.215,103.351z"/>
			<path fill-rule="evenodd" clip-rule="evenodd" fill="#979056" d="M87.605,84.088c2.058-0.261-3.438,4.835-6.227,6.539
				c-2.32,1.415-11.703,6.171-5.159,1.194c1.116-0.849,2.954-2.012,3.107-2.287c0.957-1.761-0.493-0.687,1.116-1.158
				C80.982,88.217,85.562,84.346,87.605,84.088z"/>
			<path fill-rule="evenodd" clip-rule="evenodd" fill="#979056" d="M101.674,83.711c6.798-1.617-4.662,5.986-6.355,7.132
				c-8.047,5.46-14.929,10.025-23.304,15.624c-1.689,1.121-7.019,3.66-2.632-0.092c3.785-3.237,8.44-5.686,12.429-9.154
				c2.335-2.021,3.935-3.595,7.671-5.553C93.939,89.336,97.844,84.616,101.674,83.711z"/>
			<path fill-rule="evenodd" clip-rule="evenodd" fill="#979056" d="M18.847,107.659c0.895-0.442,8.042-3.141,8.164-1.774
				c0.064,0.664-10.915,4.803-11.202,4.323C15.219,109.227,17.515,108.315,18.847,107.659z"/>
			<path fill-rule="evenodd" clip-rule="evenodd" fill="#979056" d="M21.679,110.491c2.329-0.875,6.613-2.022,9.845-1.978
				c5.693,0.087-2.931,1.659-5.66,2.461c-3.285,0.965-12.037,4.878-12.271,4.625C12.371,114.305,19.811,111.193,21.679,110.491z"/>
			<path fill-rule="evenodd" clip-rule="evenodd" fill="#979056" d="M48.652,106.7c5.346-2.376,12.423-0.749,14.851,1.353
				c6.994,6.049,5.635,16.133-0.289,20.244c-9.667,6.694-19.756,0.366-21.511-11.489C41.175,113.226,44.009,108.765,48.652,106.7z
				 M43.382,116.605c0.458,0.448,0.472-0.394,0.658-0.745c3.723-7.062,15.531-7.708,18.712-0.309
				c4.272,9.937-13.296,12.687-13.906,3.974c-0.182-2.598,7.656-6.959,8.898-2.264c0.125,0.468-1.871,5.066-3.15,3.143
				c-0.285-0.427,2.242-1.493,1.058-3.386c-1.009-1.604-5.109-0.268-5.274,1.788c-0.371,4.521,7.159,6.898,10.255,3.506
				c4.357-4.764-4.088-11.604-8.168-11.383c-5.396,0.291-8.614,5.371-7.974,9.56c2.158,14.022,20.43,9.655,22.181,0.66
				c1.998-10.33-9.882-16.833-17.454-13.49C46.808,108.722,40.833,114.111,43.382,116.605z"/>
			<path fill-rule="evenodd" clip-rule="evenodd" fill="#979056" d="M93.516,96.68c4.198-0.481-1.69,3.595-3.775,4.998
				c-1.064,0.716-7.609,6.44-6.613,2.168C83.246,103.343,92.761,96.763,93.516,96.68z"/>
			<path fill-rule="evenodd" clip-rule="evenodd" fill="#979056" d="M22.851,145.989c1.029-3.505,1.865-5.812,3.253-9.89
				c0.311-0.912,2.139-5.22,1.877-5.574c-1.369-1.841-10.076,1.64-11.272-0.977c-0.165-0.359,5.672-12.846,7.889-12.895
				c0.998-0.02,5.776,8.247,6.359,9.1c0.629,0.922,0.9,1.895,1.57,3.471c3.173,7.496,14.226,18.146,20.794,23.179
				c2.292,1.752,0.307,1.232-0.966,1.675c-0.885,0.309-10.134,4.119-11.231,3.211c-0.645-0.538-0.672-5.189-0.678-5.408
				c-0.041-2.184,1.611-5.959,0.973-6.716c-0.916-1.095-5.757,0.437-6.786,0.541c-2.729,0.259-15.699,0.064-6.281-0.728
				c0.938-0.078,12.363-0.959,12.625-1.369c0.8-1.26-2.91-2.209-1.394-1.84c-1.766-0.427-10.256,2.706-11.629,0.802
				c-0.673-0.922,2.234-7.716,2.547-8.286c0.161-0.289,1.512-1.373,1.5-1.829c0-0.177-0.843-2.337-1.538-2.358
				c-1.429-0.042-0.543,4.066-0.454,3.484C29.565,136.408,25.46,141.887,22.851,145.989z M23.567,121.149
				c-0.392,1.031-6.575,6.588-5.256,7.941c0.825,0.84,2.16-0.33,3.088-0.324c1.208,0.01,6.907,0.755,7.741-0.253
				c0.109-0.128-0.295-2.05-0.932-2.251c-0.332-0.105-5.604,2.345-6.565,1.315c-1.666-1.773,3.622-3.853,4.162-5.672
				c0.493-1.642-1.399-2.536-2.075-2.205C23.053,120.033,23.437,121.475,23.567,121.149z M24.631,125.881
				c1.707,1.641,4.286-2.809,1.429-2.085C25.885,123.841,23.969,125.252,24.631,125.881z M29.946,141.443
				c0.666,0.751,5.522-0.65,6.446-0.72c0.066-0.01,1.475,0.916,2.021-0.018c0.658-1.144-6.293-7.547-6.264-7.735
				C35.089,136.024,28.243,139.527,29.946,141.443z M43.079,146.926c0.138-0.458-2.165,7.939-0.986,8.685
				c0.697,0.438,7.964-2.048,7.561-1.881c-1.584,0.65,1.367-0.499,1.46-0.977c0.279-1.506-7.083,1.204-6.838,1.393
				c-0.782-0.597,2.141-10.317-1.341-7.733C42.883,146.447,43.104,146.857,43.079,146.926z M48.914,151.141
				c0.285-0.68-2.219-1.908-2.735-1.462C43.916,151.668,48.159,152.959,48.914,151.141z"/>
			<path fill-rule="evenodd" clip-rule="evenodd" fill="#979056" d="M117.291,128.238c2.261-4.86-3.022,1.741-5.049-2.475
				c-0.396-0.825,0.179-2.838-0.35-3.259c-0.914-0.721-1.584,3.552-1.45,4.053C111.244,129.426,114.004,129.8,117.291,128.238
				c0.324,1.611-2.747,1.973-3.791,1.924c-3.304-0.155-3.021-3.771-4.569-4.851c-1.537-1.085-4.647,0.551-6.55-0.652
				c-0.786-0.495-2.546-2.409-2.856-3.937c-0.532-2.6,0.51-2.146-2.199-1.611c-7.963,1.561-7.885-10.943-2.867-12.063
				c1.952-0.435,4.711,3.345,6.173,4.396c8.729,6.285,17.617,10.142,27.478,13.143c1.83,0.558,3.604,2.028,5.047,2.479
				c1.021,0.316,6.941,0.673,7.232,1.011c0.283,0.336-1.256,4.779-2.341,5.988c-2.38,2.649-6.637,2.401-8.052,1.183
				c-0.528-0.455-1.195-3.484-1.305-3.547c-1.561-0.877-4.817,2.12-7.099,1.47C118.22,132.209,120.268,127.165,117.291,128.238z
				 M94.582,114.569c3.343,4.105,5.47-5.761,1.103-4.229C94.542,110.735,93.444,113.177,94.582,114.569z M100.519,115.115
				c-0.648,2.832-0.219-1.402-0.103-1.373c-0.652-0.159-1.165,1.835-2.494,2.394c-2.906,1.217-4.96-0.328-5.682-3.695
				C90.8,119.06,99.566,119.272,100.519,115.115z M108.712,119.492c-0.035-1.749-5.033-3.121-5.194-2.995
				C99.962,119.334,108.818,124.488,108.712,119.492z M109.097,123.863c0.537-0.328,1.733-2.409,1.205-2.865
				c-0.945-0.812-1.038,1.085-3.333,1.513c-2.414,0.444-5.185-1.552-5.515-5.141C98.856,122.194,104.842,126.463,109.097,123.863z
				 M114.485,126.52c4.694,0.796,2.527-7.409-0.916-4.216C112.327,123.452,113.038,126.276,114.485,126.52z M119.27,124.036
				C119.49,124.152,119.125,123.958,119.27,124.036L119.27,124.036z M120.953,131.95c0.66,0.555,4.862,0.349,6.257-0.383
				c0.372-0.198,2.909-3.558,2.245-4.286c-0.452-0.491-2.443,3.23-5.171,3.16c-4.204-0.106-1.551-6.446-2.919-6.167
				C119,124.761,119.237,130.513,120.953,131.95z M127.409,126.186c-0.531-0.934-4.037-0.955-4.262-0.741
				C118.643,129.702,130.069,130.915,127.409,126.186z M134.733,133.615c-2.805,0.501-4.323-4.771-4.494-4.597
				c-5.431,5.548,9.083,9.826,7.454,1.79C136.905,132.51,135.942,133.397,134.733,133.615z M136.983,129.331
				c-0.443-0.65-4.414-0.45-4.457-0.407C128.18,133.397,139.762,133.407,136.983,129.331z"/>
			<path fill-rule="evenodd" clip-rule="evenodd" fill="#979056" d="M66.626,130.123c0.373-0.415,7.341-0.681,7.353,0.42
				c0.016,1.597-4.267,0.51-5.155,1.189c-1.082,0.827-0.794,12.032-1.91,4.461C66.805,135.439,65.566,131.309,66.626,130.123z"/>
			<path fill-rule="evenodd" clip-rule="evenodd" fill="#979056" d="M16.108,150.717c3.042-2.541,2.531,3.451-0.136,2.557
				C14.788,152.88,15.572,151.164,16.108,150.717z"/>
			<path fill-rule="evenodd" clip-rule="evenodd" fill="#979056" d="M78.89,135.576c-2.161,1.048-5.21-0.474-6.643,1.058
				c-1.258,1.341,1.704,4.748-0.004,5.041c-1.052,0.179-2.473-5.243-1.504-6.289C72.411,133.562,77.32,134.399,78.89,135.576z"/>
			<path fill-rule="evenodd" clip-rule="evenodd" fill="#979056" d="M9.799,156.999c1.473-0.333,1.673,3.129-0.33,2.893
				C8.231,159.748,8.442,157.309,9.799,156.999z"/>
			<path fill-rule="evenodd" clip-rule="evenodd" fill="#979056" d="M78.678,137.874c-0.285,0.101,1.799-1.941,3.403-1.25
				c3.417,1.462-5.796,1.636-3.009,3.653c1.078,0.778,7.561,5.099,7.349,5.466c-1.623,2.807-8.273-5.245-9.067-4.41
				c-0.798,0.841,1.916,5.057-1.027,4.495c-0.842-0.161-1.549-6.52-1.126-6.96C76.021,138.021,78.812,137.827,78.678,137.874z"/>
			<path fill-rule="evenodd" clip-rule="evenodd" fill="#979056" d="M0.672,163.529c2.709-2.448,2.508,4.111-0.282,2.036
				C-0.415,164.973,0.201,163.954,0.672,163.529z"/>
			<path fill-rule="evenodd" clip-rule="evenodd" fill="#979056" d="M61.642,151.143c1.634-1.389-0.693,5.747-2.353,7.95
				c-0.808,1.065-3.347,3.746-4.006,4.224c-3.954,2.893-1.729-0.668,0.14-2.561c2.663-2.689,5.214-6.293,6.099-9.018
				C61.64,151.372,61.331,151.405,61.642,151.143z"/>
			<path fill-rule="evenodd" clip-rule="evenodd" fill="#979056" d="M193.542,115.689c2.248-0.409,0.311,0.664-0.357,1.782
				c-4.26,7.067-9.566,16.047-15.564,23.479c-0.426,0.536-2.662,4.074-3.451,2.11c-0.354-0.893,5.574-6.128,6.158-6.798
				c3.852-4.391,6.537-9.803,9.922-14.876c4.348-6.513-5.111,0.9-8.016,2.292c-1.643,0.782-3.215,0.845-4.209,1.483
				c-3.4,2.176-16.906,6.456-24.605,7.032c-0.865,0.064-7.677-0.574-7.908-1.38c-0.5-1.708,5.148-0.485,5.638-0.497
				c11.451-0.185,21.6-3.351,31.898-8.834C185.44,120.213,189.28,116.456,193.542,115.689z"/>
			<path fill-rule="evenodd" clip-rule="evenodd" fill="#979056" d="M64.479,153.973c1.242-0.489-0.105,4.053-1.2,5.943
				c-0.757,1.307-5.016,5.212-5.87,4.754c-1.262-0.676,3.719-4.746,4.239-5.412C62.604,158.024,63.28,154.443,64.479,153.973z"/>
			<path fill-rule="evenodd" clip-rule="evenodd" fill="#979056" d="M91.588,147.622c0.695-1.203,2.431-0.485,2.628,0.091
				C94.927,149.76,90.486,149.538,91.588,147.622z"/>
			<path fill-rule="evenodd" clip-rule="evenodd" fill="#979056" d="M185.393,123.615c2.061-0.395-3.859,5.694-5.137,7.343
				c-2.562,3.327-3.875,6.995-6.852,8.402c-3.65,1.719,0.52-2.422,0.475-2.377c2.91-3.087,4.631-5.562,6.855-8.397
				c1.195-1.52-3.572,1.165-5.539,1.863c-6.201,2.201-14.354,4.228-20.771,4.257c-3.988,0.014,2.576-1.687,3.26-1.772
				c2.752-0.345,8.363-0.943,9.998-1.455C174.278,129.395,180.104,124.622,185.393,123.615z"/>
			<path fill-rule="evenodd" clip-rule="evenodd" fill="#979056" d="M67.069,157.989c1.955-0.792-1.079,6.658-3.358,5.442
				C63.121,163.119,66.704,158.138,67.069,157.989z"/>
			<path fill-rule="evenodd" clip-rule="evenodd" fill="#979056" d="M98.435,149.304c0.561-0.906,2.552-0.458,2.51,0.686
				C100.898,151.171,97.622,150.621,98.435,149.304z"/>
			<path fill-rule="evenodd" clip-rule="evenodd" fill="#979056" d="M105.37,149.283c0.436-0.343,1.4-0.772,1.947-0.275
				C109.915,151.366,102.447,151.601,105.37,149.283z"/>
			<path fill-rule="evenodd" clip-rule="evenodd" fill="#979056" d="M111.161,149.306c0.543-0.658,1.914-1.073,2.406-0.685
				C116.242,150.7,109.132,151.796,111.161,149.306z"/>
			<path fill-rule="evenodd" clip-rule="evenodd" fill="#979056" d="M84.496,157.208c8.423-3.844,4.474,8.477,9.756,7.848
				c2.598-0.305,4.636-4.897,6.188-5.686c2.042-1.03,5.829-1.197,7.52-1.028c3.681,0.374,5.827,5.224,8.145,5.231
				c3.583,0.006,5.07-6.617,10.569-5.542c2.52,0.495,6.268,3.864,8.752,5.338c2.788,1.651-1.083,1.688-3.637,2.439
				c-19.598,5.768-35.693,4.43-52.247,0.375c-1.021-0.248-7.9-1.663-7.562-3.16c0.521-2.308,5.408-1.299,8.219-2.628
				C82.426,159.341,82.865,157.95,84.496,157.208z"/>
			<path fill-rule="evenodd" clip-rule="evenodd" fill="#979056" d="M170.583,152.765c-2.535-1.541-0.271-4.002-2.131-4.432
				c-0.611-0.14-4.582,3.477-4.57,3.266c-0.18,2.82,7.791,0.238,7.023,3.313c-0.105,0.417-4.314-0.365-3.84-0.301
				c-0.822-0.121-3.607-0.959-4.197-0.485c-1.852,1.49,0.719,6.932-0.869,8.086c-2.869,2.104-7.387-2.372-8.863-1.665
				c-2.084,1.011,0.389,5.359-2.457,6.584c-1.199,0.515-10.371-1.857-10.066-3.844c0.21-1.364-2.084,0.768,1.991-1.129
				c7.703-3.58,20.41-9.974,25.591-15.714C169.551,144.943,170.842,151.428,170.583,152.765z M152.809,158.4
				c-0.232,1.088,7.129,3.759,8.096,3.005c1.428-1.108-0.156-7.174-0.318-7.182C160.139,154.194,152.911,157.948,152.809,158.4z
				 M144.233,162.816c-3.771,1.487,5.718,3.409,6.341,2.945c0.838-0.625,1.135-5.618,0.588-6.049
				c-0.662-0.524-0.891,0.355-1.605,0.46C147.303,160.5,144.62,162.659,144.233,162.816z"/>
			<path fill-rule="evenodd" clip-rule="evenodd" fill="#979056" d="M163.719,166.202c1.613-1.126,2.107,2.838,0.545,2.925
				C162.768,169.214,162.696,166.916,163.719,166.202z"/>
		</g>
	</g>
	<g>
		<g>
			<path fill-rule="evenodd" clip-rule="evenodd" fill="#979056" d="M149.463,142.4C149.487,142.555,149.434,142.152,149.463,142.4
				L149.463,142.4z"/>
			<path fill-rule="evenodd" clip-rule="evenodd" fill="#979056" d="M148.004,143.371c-4.078,1.655-9.146,4.02-13.695,5.939
				c-1.315,0.558-5.258,2.056-5.914,1.784c0.373,0.151-3.017-3.38-2.993-3.239c-0.692-4.527,6.889-3.592,8.836-3.724
				c4.996-0.34,11.437-1.836,12.622-1.944c-0.016-0.004,2.842,1.148,1.947-0.274c-0.393-0.619-9.282,0.2-10.877,0.165
				c-0.758-0.021-9.531-0.879-10.703-0.05c-1.497,1.048-1.771,4.611-3.312,5.073c-0.695,0.21-0.332-4.534-1.701-3.99
				c-0.354,0.136-0.932,3.746-0.708,5.285c0.103,0.676,1.641,4.387,2.148,4.317c1.071-0.147-0.489-3.618,0.287-3.887
				c0.619-0.211,3.63,3.356,5.21,3.506c1.694,0.167,3.561-1.388,5.643-2.317C139.098,148.089,144.476,146.863,148.004,143.371z"/>
			<path fill-rule="evenodd" clip-rule="evenodd" fill="#979056" d="M119.072,151.042c1.361-0.187,0.499-5.617-0.852-5.074
				C117.03,146.455,118.309,151.149,119.072,151.042z"/>
		</g>
	</g>
</g>
<g>
	<path fill="#A98C6A" d="M69.786,162.986c0.286,0.304,0.429,0.688,0.429,1.153v38.687c0,0.465-0.144,0.85-0.429,1.153
		c-0.287,0.305-0.663,0.456-1.127,0.456c-0.465,0-0.858-0.151-1.181-0.456c-0.322-0.304-0.483-0.688-0.483-1.153v-32.892
		l-16.312,33.213c-0.25,0.502-0.716,0.752-1.395,0.752c-0.644,0-1.145-0.34-1.502-1.02l-16.258-32.463v32.409
		c0,0.465-0.152,0.85-0.456,1.153c-0.304,0.305-0.689,0.456-1.154,0.456s-0.85-0.151-1.153-0.456
		c-0.304-0.304-0.456-0.688-0.456-1.153v-38.687c0-0.465,0.152-0.85,0.456-1.153c0.303-0.304,0.688-0.456,1.153-0.456
		c0.715,0,1.198,0.268,1.449,0.805l18.029,35.628l17.814-35.628c0.322-0.537,0.805-0.805,1.449-0.805
		C69.124,162.53,69.499,162.682,69.786,162.986z"/>
	<path fill="#A98C6A" d="M81.858,202.798c-2.29-1.305-4.087-3.103-5.393-5.393c-1.306-2.288-1.958-4.829-1.958-7.619
		c0-2.825,0.652-5.383,1.958-7.673c1.306-2.289,3.103-4.086,5.393-5.393c2.289-1.305,4.847-1.958,7.673-1.958
		c2.791,0,5.33,0.653,7.619,1.958c2.289,1.307,4.086,3.104,5.393,5.393c1.307,2.29,1.959,4.848,1.959,7.673
		c0,2.79-0.652,5.331-1.959,7.619c-1.307,2.29-3.104,4.088-5.393,5.393c-2.289,1.307-4.828,1.959-7.619,1.959
		C86.705,204.757,84.146,204.105,81.858,202.798z M95.54,200.196c1.789-1.037,3.193-2.468,4.213-4.292s1.529-3.863,1.529-6.117
		c0-2.253-0.51-4.292-1.529-6.116c-1.02-1.825-2.424-3.265-4.213-4.319s-3.791-1.583-6.009-1.583s-4.221,0.528-6.009,1.583
		c-1.79,1.055-3.202,2.494-4.239,4.319c-1.038,1.824-1.556,3.863-1.556,6.116c0,2.254,0.518,4.293,1.556,6.117
		c1.037,1.824,2.45,3.255,4.239,4.292c1.788,1.038,3.791,1.557,6.009,1.557S93.751,201.234,95.54,200.196z"/>
	<path fill="#A98C6A" d="M113.997,202.798c-2.29-1.305-4.087-3.103-5.393-5.393c-1.306-2.288-1.958-4.829-1.958-7.619
		c0-2.825,0.652-5.383,1.958-7.673c1.306-2.289,3.103-4.086,5.393-5.393c2.289-1.305,4.847-1.958,7.673-1.958
		c2.79,0,5.33,0.653,7.619,1.958c2.289,1.307,4.086,3.104,5.393,5.393c1.306,2.29,1.958,4.848,1.958,7.673
		c0,2.79-0.652,5.331-1.958,7.619c-1.307,2.29-3.104,4.088-5.393,5.393c-2.289,1.307-4.829,1.959-7.619,1.959
		C118.844,204.757,116.286,204.105,113.997,202.798z M127.68,200.196c1.788-1.037,3.192-2.468,4.212-4.292s1.529-3.863,1.529-6.117
		c0-2.253-0.51-4.292-1.529-6.116c-1.02-1.825-2.424-3.265-4.212-4.319c-1.789-1.055-3.792-1.583-6.01-1.583
		c-2.219,0-4.222,0.528-6.01,1.583c-1.789,1.055-3.201,2.494-4.238,4.319c-1.038,1.824-1.557,3.863-1.557,6.116
		c0,2.254,0.519,4.293,1.557,6.117c1.037,1.824,2.449,3.255,4.238,4.292c1.788,1.038,3.791,1.557,6.01,1.557
		C123.888,201.752,125.891,201.234,127.68,200.196z"/>
	<path fill="#A98C6A" d="M160.811,176.319c2.057,1.073,3.666,2.639,4.83,4.695c1.162,2.058,1.744,4.517,1.744,7.378v14.434
		c0,0.465-0.152,0.85-0.457,1.153c-0.305,0.305-0.689,0.456-1.152,0.456c-0.467,0-0.852-0.151-1.154-0.456
		c-0.305-0.304-0.457-0.688-0.457-1.153v-14.434c0-3.398-0.957-5.991-2.869-7.78c-1.914-1.788-4.41-2.683-7.486-2.683
		c-1.896,0-3.621,0.367-5.178,1.1c-1.555,0.733-2.782,1.753-3.675,3.059c-0.895,1.306-1.341,2.745-1.341,4.319v16.419
		c0,0.465-0.144,0.85-0.43,1.153c-0.287,0.305-0.68,0.456-1.181,0.456c-0.465,0-0.85-0.151-1.153-0.456
		c-0.305-0.304-0.456-0.688-0.456-1.153v-26.131c0-0.501,0.151-0.894,0.456-1.181c0.304-0.286,0.688-0.429,1.153-0.429
		c0.501,0,0.894,0.143,1.181,0.429c0.286,0.287,0.43,0.68,0.43,1.181v2.79c1.215-1.503,2.7-2.674,4.454-3.515
		c1.752-0.84,3.666-1.261,5.74-1.261C156.42,174.709,158.754,175.246,160.811,176.319z"/>
	<path fill="#A98C6A" d="M173.098,201.967c-1.307-1.646-1.959-3.774-1.959-6.386v-31.442c0-0.501,0.152-0.894,0.457-1.181
		c0.303-0.286,0.688-0.429,1.152-0.429c0.502,0,0.895,0.143,1.182,0.429c0.285,0.287,0.43,0.68,0.43,1.181v31.442
		c0,1.646,0.348,2.996,1.045,4.051c0.697,1.056,1.602,1.583,2.711,1.583h1.34c0.395,0,0.717,0.144,0.967,0.43
		c0.25,0.287,0.375,0.68,0.375,1.181c0,0.465-0.143,0.85-0.428,1.153c-0.287,0.305-0.682,0.456-1.182,0.456h-1.072
		C176.077,204.435,174.403,203.613,173.098,201.967z"/>
	<path fill="#A98C6A" d="M183.266,168.19c-0.465-0.482-0.697-1.081-0.697-1.797c0-0.787,0.25-1.396,0.75-1.825
		c0.502-0.429,1.092-0.644,1.771-0.644s1.26,0.215,1.744,0.644c0.482,0.43,0.725,1.038,0.725,1.825c0,0.716-0.242,1.314-0.725,1.797
		c-0.484,0.483-1.082,0.725-1.799,0.725C184.321,168.915,183.731,168.673,183.266,168.19z M183.936,203.979
		c-0.305-0.304-0.455-0.688-0.455-1.153v-26.131c0-0.501,0.15-0.894,0.455-1.181c0.305-0.286,0.689-0.429,1.154-0.429
		c0.5,0,0.893,0.143,1.18,0.429c0.287,0.287,0.43,0.68,0.43,1.181v26.131c0,0.465-0.143,0.85-0.43,1.153
		c-0.287,0.305-0.68,0.456-1.18,0.456C184.625,204.435,184.241,204.284,183.936,203.979z"/>
	<path fill="#A98C6A" d="M214.305,176.695c2.271,1.287,4.043,3.067,5.312,5.339s1.904,4.855,1.904,7.753v10.517
		c0,2.862-0.643,5.464-1.932,7.808c-1.287,2.342-3.057,4.185-5.311,5.526s-4.758,2.012-7.512,2.012
		c-2.826,0-5.305-0.528-7.432-1.583c-2.129-1.055-3.908-2.494-5.34-4.319c-0.287-0.357-0.428-0.716-0.428-1.072
		c0-0.43,0.178-0.771,0.535-1.02c0.287-0.215,0.607-0.322,0.967-0.322c0.57,0,1.037,0.232,1.395,0.697
		c1.18,1.431,2.637,2.558,4.373,3.381c1.734,0.822,3.711,1.233,5.93,1.233c2.182,0,4.148-0.536,5.902-1.609
		c1.752-1.073,3.129-2.549,4.131-4.427c1-1.878,1.502-3.979,1.502-6.305v-2.36c-1.037,2.11-2.584,3.774-4.641,4.99
		c-2.059,1.216-4.428,1.824-7.109,1.824c-2.898,0-5.482-0.635-7.754-1.905c-2.271-1.27-4.051-3.04-5.338-5.312
		c-1.289-2.271-1.932-4.856-1.932-7.754c0-2.861,0.66-5.437,1.984-7.727c1.322-2.288,3.129-4.078,5.42-5.365
		c2.289-1.288,4.828-1.932,7.619-1.932C209.45,174.763,212.034,175.407,214.305,176.695z M212.616,200.223
		c1.789-1.02,3.184-2.433,4.186-4.239c1-1.806,1.502-3.871,1.502-6.197c0-2.324-0.502-4.399-1.502-6.224
		c-1.002-1.824-2.396-3.246-4.186-4.266s-3.809-1.529-6.062-1.529c-2.291,0-4.328,0.51-6.117,1.529s-3.184,2.441-4.186,4.266
		s-1.502,3.899-1.502,6.224c0,2.326,0.5,4.392,1.502,6.197c1.002,1.807,2.396,3.22,4.186,4.239s3.826,1.529,6.117,1.529
		C208.807,201.752,210.827,201.243,212.616,200.223z"/>
	<path fill="#A98C6A" d="M245.694,176.319c2.057,1.073,3.666,2.639,4.83,4.695c1.162,2.058,1.744,4.517,1.744,7.378v14.434
		c0,0.465-0.152,0.85-0.457,1.153c-0.305,0.305-0.689,0.456-1.152,0.456c-0.467,0-0.852-0.151-1.154-0.456
		c-0.305-0.304-0.457-0.688-0.457-1.153v-14.434c0-3.398-0.957-5.991-2.869-7.78c-1.914-1.788-4.41-2.683-7.486-2.683
		c-1.896,0-3.621,0.367-5.178,1.1c-1.555,0.733-2.781,1.753-3.676,3.059s-1.34,2.745-1.34,4.319v16.419
		c0,0.465-0.145,0.85-0.43,1.153c-0.287,0.305-0.68,0.456-1.182,0.456c-0.465,0-0.85-0.151-1.152-0.456
		c-0.305-0.304-0.457-0.688-0.457-1.153v-38.687c0-0.501,0.152-0.894,0.457-1.181c0.303-0.286,0.688-0.429,1.152-0.429
		c0.502,0,0.895,0.143,1.182,0.429c0.285,0.287,0.43,0.68,0.43,1.181v15.346c1.215-1.503,2.699-2.674,4.453-3.515
		c1.752-0.84,3.666-1.261,5.74-1.261C241.303,174.709,243.637,175.246,245.694,176.319z"/>
	<path fill="#A98C6A" d="M271.555,201.618c0.305,0.305,0.457,0.707,0.457,1.208c0,0.465-0.152,0.85-0.457,1.153
		c-0.303,0.305-0.705,0.456-1.207,0.456h-1.234c-1.967,0-3.721-0.447-5.258-1.342c-1.537-0.894-2.736-2.119-3.594-3.675
		c-0.859-1.557-1.289-3.317-1.289-5.285v-15.078h-4.186c-0.428,0-0.777-0.134-1.045-0.402c-0.27-0.268-0.402-0.617-0.402-1.046
		c0-0.43,0.133-0.778,0.402-1.047c0.268-0.268,0.617-0.402,1.045-0.402h4.186v-8.746c0-0.5,0.152-0.902,0.457-1.207
		c0.303-0.304,0.688-0.456,1.152-0.456c0.502,0,0.904,0.152,1.209,0.456c0.303,0.305,0.455,0.707,0.455,1.207v8.746h7.082
		c0.43,0,0.779,0.135,1.047,0.402c0.268,0.269,0.402,0.617,0.402,1.047c0,0.429-0.135,0.778-0.402,1.046
		c-0.268,0.269-0.617,0.402-1.047,0.402h-7.082v15.078c0,2.075,0.645,3.765,1.932,5.07s2.951,1.958,4.99,1.958h1.18
		C270.85,201.162,271.252,201.315,271.555,201.618z"/>
</g>
<g>
	<g>
		<path fill="#979056" stroke="#979056" stroke-width="0.1" d="M222.206,220.963c1.035-1.518,1.994-3.277,2.879-5.277
			c0.885-1.999,1.576-3.865,2.076-5.598c-0.055,0.036-0.326,0.228-0.816,0.576c-0.492,0.348-0.795,0.571-0.912,0.669
			c-0.115,0.099-0.389,0.312-0.816,0.644c-0.428,0.33-0.715,0.571-0.857,0.723c-0.143,0.152-0.375,0.389-0.695,0.71
			c-0.322,0.321-0.545,0.599-0.67,0.83c-0.125,0.232-0.277,0.505-0.455,0.817c-0.18,0.312-0.301,0.625-0.361,0.938
			c-0.064,0.312-0.094,0.629-0.094,0.95c0,0.269-0.055,0.479-0.162,0.63c-0.107,0.152-0.213,0.228-0.32,0.228
			s-0.211-0.094-0.309-0.281s-0.146-0.397-0.146-0.629c0-0.679,0.236-1.402,0.709-2.17s1.039-1.46,1.701-2.076
			c0.66-0.616,1.334-1.183,2.021-1.7c0.688-0.519,1.26-0.92,1.715-1.206c0.455-0.285,0.701-0.428,0.736-0.428
			c0.143,0,0.289,0.08,0.441,0.24c0.152,0.161,0.229,0.322,0.229,0.482c0,0.946-0.455,2.496-1.367,4.647
			c-0.91,2.151-2.008,4.156-3.293,6.013c3.213-1.231,5.445-2.178,6.695-2.839c1.303-2.232,2.809-4.228,4.514-5.986
			s3.129-2.639,4.271-2.639c0.393,0,0.59,0.232,0.59,0.696c0,0.661-0.223,1.34-0.67,2.036s-1.121,1.411-2.021,2.143
			c-0.902,0.732-1.705,1.34-2.412,1.821c-0.705,0.482-1.637,1.09-2.799,1.821c-2.268,3.394-3.4,5.795-3.4,7.205
			c0,0.357,0.295,0.536,0.883,0.536c0.43,0,1.01-0.094,1.742-0.281c0.73-0.188,1.531-0.442,2.396-0.764s1.74-0.66,2.625-1.018
			s1.791-0.745,2.719-1.165s1.719-0.777,2.371-1.071c0.65-0.295,1.271-0.585,1.861-0.871c0.59-0.285,0.9-0.437,0.938-0.455
			c0.107-0.054,0.178-0.08,0.213-0.08c0.09,0,0.135,0.062,0.135,0.188c0,0.09-0.062,0.16-0.188,0.214
			c-0.053,0.019-0.906,0.406-2.559,1.165c-1.65,0.76-3.133,1.42-4.445,1.982s-2.822,1.116-4.527,1.661
			c-1.705,0.544-3.031,0.816-3.977,0.816c-0.805,0-1.205-0.491-1.205-1.473c0-1.25,0.848-3.188,2.543-5.812
			c-0.963,0.464-3.205,1.375-6.723,2.731c-3.34,4.982-6.58,7.474-9.723,7.474c-1.32,0-1.982-0.277-1.982-0.831
			c0-0.428,0.135-0.856,0.402-1.285s0.691-0.853,1.271-1.272c0.582-0.42,1.156-0.799,1.729-1.139
			c0.572-0.339,1.344-0.718,2.316-1.138c0.975-0.42,1.795-0.768,2.465-1.045C220.157,221.745,221.063,221.391,222.206,220.963z
			 M221.803,221.472c-1.445,0.589-2.621,1.089-3.521,1.5c-0.902,0.411-1.85,0.888-2.84,1.433s-1.729,1.076-2.209,1.594
			c-0.482,0.518-0.725,1.035-0.725,1.554c0,0.285,0.482,0.429,1.447,0.429C216.383,227.981,219,225.811,221.803,221.472z
			 M232.116,216.865c0.982-0.606,1.826-1.156,2.531-1.647c0.705-0.49,1.434-1.049,2.184-1.674s1.32-1.245,1.713-1.861
			s0.59-1.201,0.59-1.755c0-0.143-0.053-0.214-0.16-0.214c-0.662,0-1.656,0.71-2.986,2.129
			C234.655,213.262,233.366,214.936,232.116,216.865z"/>
		<path fill="#979056" stroke="#979056" stroke-width="0.1" d="M246.766,218.472c0.662,0,0.992,0.268,0.992,0.804
			c0,0.589-0.367,1.188-1.098,1.794c-0.732,0.607-1.625,0.911-2.68,0.911c-0.393,0-0.688-0.062-0.883-0.188
			c-0.037,0.214-0.055,0.384-0.055,0.509c0,0.554,0.232,1.005,0.697,1.353c0.463,0.349,1.188,0.522,2.17,0.522
			c2.748,0,6.973-1.375,12.668-4.125c0.18-0.089,0.305-0.151,0.375-0.188c0.107-0.054,0.17-0.08,0.188-0.08
			c0.107,0,0.162,0.062,0.162,0.188c0,0.09-0.072,0.16-0.215,0.214c-1.857,1-4.068,1.979-6.629,2.934
			c-2.562,0.955-4.801,1.433-6.711,1.433c-1.303,0-2.268-0.196-2.893-0.589s-0.938-0.902-0.938-1.527
			c0-0.91,0.514-1.799,1.541-2.665C244.485,218.905,245.588,218.472,246.766,218.472z M243.661,220.642
			c-0.107,0.179-0.162,0.357-0.162,0.535c0,0.268,0.215,0.401,0.643,0.401c0.697,0,1.301-0.218,1.809-0.655
			c0.51-0.438,0.764-0.853,0.764-1.246c0-0.304-0.215-0.455-0.643-0.455c-0.482,0-0.947,0.13-1.393,0.389
			C244.231,219.87,243.891,220.213,243.661,220.642z"/>
		<path fill="#979056" stroke="#979056" stroke-width="0.1" d="M277.141,220.186c-4.572,2.286-7.973,3.429-10.205,3.429
			c-1.018,0-1.799-0.21-2.344-0.63c-0.545-0.419-0.816-1.146-0.816-2.183c0-0.178-0.062-0.268-0.188-0.268
			c-0.375,0-1.295,0.304-2.76,0.91c-1.465,0.607-2.312,0.911-2.545,0.911c-0.355,0-0.66-0.08-0.91-0.241s-0.375-0.349-0.375-0.562
			c0-0.731,0.648-1.312,1.941-1.741c1.295-0.429,2.568-0.643,3.818-0.643c0.143,0,0.307,0.036,0.494,0.107s0.281,0.134,0.281,0.188
			s-0.098,0.08-0.295,0.08c-1.125,0-2.08,0.116-2.865,0.349c-0.785,0.231-1.316,0.478-1.594,0.736s-0.414,0.495-0.414,0.71
			c0,0.16,0.105,0.24,0.32,0.24c0.375,0,1.254-0.258,2.639-0.776c1.383-0.518,2.164-0.776,2.344-0.776
			c0.09,0,0.33,0.147,0.723,0.441c0.393,0.295,0.59,0.541,0.59,0.736c0,0.822,0.143,1.394,0.428,1.715s0.742,0.482,1.367,0.482
			c0.785,0,1.744-0.165,2.879-0.496c1.133-0.33,2.129-0.679,2.986-1.045c0.857-0.365,1.768-0.776,2.732-1.231
			s1.508-0.71,1.633-0.764c0.107-0.054,0.17-0.08,0.188-0.08c0.09,0,0.135,0.062,0.135,0.188
			C277.329,220.062,277.266,220.132,277.141,220.186z"/>
		<path fill="#979056" stroke="#979056" stroke-width="0.1" d="M278.346,219.597c-1.268,2.356-1.902,4.08-1.902,5.169
			c0,0.607,0.447,0.911,1.34,0.911c0.697,0,1.736-0.259,3.121-0.776c1.383-0.519,2.594-1.031,3.629-1.541
			c1.035-0.509,2.393-1.2,4.072-2.075c1.678-0.875,2.598-1.349,2.758-1.42c0.107-0.054,0.17-0.08,0.188-0.08
			c0.09,0,0.135,0.062,0.135,0.188c0,0.09-0.062,0.16-0.188,0.214c-0.232,0.125-0.801,0.415-1.701,0.871
			c-0.902,0.455-1.617,0.812-2.143,1.071c-0.527,0.259-1.25,0.616-2.17,1.071s-1.711,0.816-2.371,1.085
			c-0.66,0.268-1.371,0.544-2.129,0.83c-0.76,0.285-1.441,0.5-2.049,0.643s-1.125,0.215-1.555,0.215
			c-1.303,0-1.955-0.607-1.955-1.821c0-1.179,0.652-2.965,1.955-5.357c1.305-2.393,2.857-4.584,4.662-6.576
			c1.803-1.99,3.293-2.986,4.473-2.986c0.393,0,0.59,0.232,0.59,0.696c0,0.375-0.162,0.911-0.482,1.607
			C285.551,213.731,282.793,216.418,278.346,219.597z M278.881,218.713c3.982-2.964,6.455-5.438,7.42-7.42
			c0.305-0.66,0.455-1.115,0.455-1.366c0-0.143-0.062-0.214-0.188-0.214c-0.75,0-1.887,0.924-3.414,2.772
			C281.627,214.333,280.204,216.41,278.881,218.713z"/>
		<path fill="#979056" stroke="#979056" stroke-width="0.1" d="M306.979,220.186c-0.357,0.161-1.184,0.482-2.477,0.965
			c-1.295,0.481-2.982,1.018-5.062,1.606c-2.08,0.59-3.666,0.884-4.756,0.884c-1.105,0-1.66-0.393-1.66-1.178
			c0-0.304,0.162-0.795,0.482-1.474c0.322-0.679,0.482-1.08,0.482-1.205c0-0.232-0.125-0.349-0.375-0.349
			c-0.232,0-0.473,0.04-0.723,0.121c-0.25,0.08-0.541,0.2-0.871,0.361s-0.514,0.25-0.549,0.268
			c-0.072,0.036-0.135,0.054-0.188,0.054c-0.09,0-0.135-0.054-0.135-0.16c0-0.09,0.062-0.161,0.188-0.215
			c0.072-0.035,0.232-0.107,0.482-0.214c0.25-0.107,0.455-0.192,0.617-0.255c0.16-0.062,0.361-0.125,0.602-0.188
			c0.242-0.062,0.459-0.094,0.656-0.094c0.893,0,1.34,0.295,1.34,0.884c0,0.251-0.162,0.715-0.482,1.393
			c-0.322,0.68-0.482,1.144-0.482,1.394c0,0.429,0.197,0.643,0.59,0.643c1.232,0,2.879-0.304,4.941-0.911
			c2.062-0.606,3.697-1.155,4.902-1.646s1.986-0.826,2.344-1.005c0.105-0.054,0.168-0.08,0.188-0.08
			c0.088,0,0.133,0.062,0.133,0.188C307.167,220.062,307.104,220.132,306.979,220.186z M295.221,214.802
			c0-0.231,0.076-0.429,0.227-0.589c0.152-0.161,0.326-0.241,0.523-0.241c0.178,0,0.32,0.076,0.428,0.228
			c0.107,0.152,0.16,0.317,0.16,0.496c0,0.304-0.076,0.575-0.227,0.816c-0.152,0.241-0.336,0.361-0.549,0.361
			c-0.037,0-0.094-0.035-0.174-0.106c-0.082-0.071-0.166-0.196-0.256-0.375S295.221,215.017,295.221,214.802z"/>
		<path fill="#979056" stroke="#979056" stroke-width="0.1" d="M309.499,223.32c-0.625,0-0.938-0.268-0.938-0.804
			c0-0.303,0.15-0.803,0.455-1.499c0.303-0.697,0.455-1.152,0.455-1.366c0-0.161-0.107-0.241-0.322-0.241
			c-0.195,0-0.477,0.062-0.844,0.188c-0.365,0.125-0.682,0.259-0.949,0.401l-0.402,0.188c-0.072,0.036-0.135,0.054-0.188,0.054
			c-0.09,0-0.135-0.054-0.135-0.16c0-0.09,0.062-0.161,0.188-0.215c1.035-0.518,1.93-0.776,2.68-0.776
			c0.643,0,0.963,0.188,0.963,0.562c0,0.018-0.07,0.21-0.213,0.575c-0.145,0.366-0.291,0.769-0.443,1.206
			c-0.15,0.438-0.227,0.754-0.227,0.95c0,0.179,0.062,0.269,0.188,0.269c0.053,0,0.32-0.246,0.803-0.737
			c0.482-0.49,1.107-0.981,1.875-1.473s1.518-0.736,2.25-0.736c0.41,0,0.719,0.2,0.924,0.603c0.205,0.401,0.336,0.848,0.389,1.339
			c0.055,0.491,0.232,0.938,0.535,1.339c0.305,0.402,0.76,0.604,1.367,0.604c0.785,0,1.764-0.175,2.932-0.522
			c1.17-0.349,2.201-0.719,3.094-1.112c0.895-0.393,1.836-0.825,2.826-1.299c0.992-0.473,1.559-0.736,1.701-0.79
			c0.107-0.054,0.17-0.08,0.188-0.08c0.09,0,0.135,0.062,0.135,0.188c0,0.09-0.062,0.16-0.188,0.214
			c-4.822,2.411-8.33,3.616-10.527,3.616c-0.66,0-1.219-0.085-1.674-0.255c-0.455-0.169-0.785-0.384-0.99-0.643
			c-0.207-0.259-0.375-0.535-0.51-0.83s-0.223-0.571-0.268-0.83s-0.125-0.474-0.242-0.644c-0.115-0.169-0.264-0.254-0.441-0.254
			c-0.445,0-0.941,0.156-1.486,0.469s-1.01,0.651-1.393,1.018c-0.385,0.366-0.729,0.706-1.031,1.018
			C309.729,223.164,309.551,223.32,309.499,223.32z"/>
		<path fill="#979056" stroke="#979056" stroke-width="0.1" d="M327.176,221.579c0-0.82,0.344-1.495,1.031-2.021
			s1.682-0.79,2.986-0.79c0.838,0,1.258,0.285,1.258,0.856c0,0.5-0.445,1.045-1.338,1.634c-0.895,0.59-1.697,0.884-2.412,0.884
			c-0.035,0-0.188-0.026-0.455-0.08c0.072,0.304,0.205,0.625,0.402,0.965c0.195,0.339,0.379,0.615,0.549,0.83
			c0.17,0.214,0.434,0.522,0.791,0.924c0.355,0.402,0.605,0.684,0.75,0.844c2.73-1.929,6.035-3.848,9.91-5.759
			c0.107-0.054,0.17-0.08,0.188-0.08c0.088,0,0.133,0.062,0.133,0.188c0,0.09-0.062,0.16-0.188,0.214
			c-0.125,0.072-0.504,0.272-1.137,0.603c-0.635,0.331-1.139,0.599-1.514,0.804c-0.375,0.206-0.916,0.505-1.621,0.897
			s-1.322,0.75-1.848,1.071c-0.527,0.321-1.125,0.701-1.795,1.139s-1.291,0.861-1.861,1.272c0.625,0.839,0.938,1.624,0.938,2.356
			c0,2.286-0.643,4.143-1.93,5.571c-1.285,1.429-2.58,2.144-3.883,2.144c-0.643,0-1.16-0.188-1.555-0.562
			c-0.393-0.375-0.588-0.92-0.588-1.635c0-2.179,1.965-4.714,5.893-7.606c-0.107-0.125-0.34-0.406-0.697-0.844
			s-0.615-0.764-0.775-0.978c-0.162-0.215-0.357-0.505-0.59-0.871c-0.232-0.365-0.398-0.705-0.496-1.018
			S327.176,221.901,327.176,221.579z M330.176,226.615c-3.518,2.785-5.277,5.384-5.277,7.794c0,0.875,0.295,1.312,0.885,1.312
			c1.178,0,2.344-0.651,3.494-1.955c1.152-1.304,1.729-3.009,1.729-5.116C331.006,228.096,330.729,227.418,330.176,226.615z
			 M328.194,221.632c0.125,0.125,0.32,0.188,0.59,0.188c0.588,0,1.254-0.25,1.994-0.75c0.74-0.499,1.111-0.973,1.111-1.419
			c0-0.25-0.178-0.375-0.535-0.375c-0.535,0-1.197,0.276-1.982,0.83s-1.178,1.036-1.178,1.446V221.632z"/>
	</g>
</g>
</svg>
