<?xml version="1.0" standalone="no"?>
<!DOCTYPE svg PUBLIC "-//W3C//DTD SVG 20010904//EN"
 "http://www.w3.org/TR/2001/REC-SVG-20010904/DTD/svg10.dtd">
<svg version="1.0" xmlns="http://www.w3.org/2000/svg"
 width="847.000000pt" height="847.000000pt" viewBox="0 0 847.000000 847.000000"
 preserveAspectRatio="xMidYMid meet">
<metadata>
Created by potrace 1.14, written by Peter Selinger 2001-2017
</metadata>
<g transform="translate(0.000000,847.000000) scale(0.100000,-0.100000)"
fill="#000000" stroke="none">
<path d="M4290 7982 c-19 -1 -100 -11 -180 -23 -208 -29 -368 -70 -600 -155
-278 -102 -380 -186 -258 -211 54 -12 86 -3 220 58 119 54 187 73 230 63 26
-5 27 -7 13 -18 -10 -7 -16 -21 -14 -32 6 -29 56 -29 157 0 91 26 118 32 192
41 25 3 52 8 60 10 8 2 47 7 85 10 39 3 89 8 113 11 79 10 346 7 375 -4 52
-21 33 -46 -104 -140 -89 -60 -111 -92 -64 -92 39 0 74 22 129 79 26 29 69 63
95 76 58 31 75 44 90 74 11 20 10 26 -6 42 -39 40 -166 50 -423 35 -119 -7
-156 -11 -255 -26 -166 -24 -365 -36 -365 -22 0 15 61 48 121 65 264 75 748
68 1073 -15 27 -7 54 -21 60 -31 16 -27 -28 -61 -192 -146 -75 -39 -158 -90
-183 -114 -79 -73 -152 -177 -123 -177 11 0 45 22 108 69 71 54 274 181 412
260 66 36 114 56 170 67 44 9 85 21 92 26 41 34 -13 61 -209 108 -138 33 -203
51 -349 95 -80 24 -96 26 -260 23 -96 -2 -191 -4 -210 -6z"/>
<path d="M2132 7690 c-49 -20 -55 -104 -8 -116 14 -3 34 -3 46 1 42 13 49 94
10 115 -21 11 -18 11 -48 0z"/>
<path d="M2684 7683 c-12 -2 -34 -17 -49 -33 -30 -31 -31 -39 -25 -196 4 -110
-43 -126 -180 -60 -100 49 -115 52 -154 35 -26 -12 -37 -38 -30 -72 2 -12 7
-54 10 -92 6 -65 5 -73 -17 -99 -29 -34 -60 -35 -212 -8 -107 19 -150 19 -175
-1 -16 -12 -9 -76 18 -187 29 -120 52 -172 79 -182 21 -7 30 -2 75 46 28 29
110 96 181 147 72 51 173 124 225 164 242 182 421 296 525 335 64 24 70 28 73
57 3 25 -3 36 -30 56 -86 64 -227 105 -314 90z m188 -90 c23 -24 14 -45 -33
-78 -16 -11 -54 -37 -83 -59 -32 -22 -59 -35 -66 -31 -14 9 -10 161 4 184 14
22 152 9 178 -16z m-448 -267 c22 -6 41 -16 43 -22 5 -16 -136 -109 -148 -97
-12 12 -24 106 -16 127 6 16 45 14 121 -8z m-296 -245 c23 -2 12 -17 -69 -102
-79 -82 -82 -83 -91 -59 -5 13 -10 54 -11 90 l-2 65 40 6 c34 5 70 5 133 0z"/>
<path d="M4150 7295 c0 -28 294 -205 341 -205 69 0 -67 121 -213 190 -70 33
-128 40 -128 15z"/>
<path d="M3906 7285 c-9 -25 42 -62 169 -124 127 -62 143 -73 300 -201 106
-86 150 -114 165 -105 14 9 -8 59 -45 103 -59 68 -302 223 -488 310 -76 36
-92 39 -101 17z"/>
<path d="M3910 7110 c-24 -15 -2 -38 67 -71 37 -18 101 -57 140 -86 91 -67
136 -88 152 -69 8 10 4 23 -18 52 -54 76 -148 135 -256 163 -28 7 -55 14 -61
16 -6 2 -17 0 -24 -5z"/>
<path d="M3633 6968 c-124 -18 -229 -107 -218 -183 2 -11 6 -43 9 -70 3 -28
15 -75 26 -105 23 -62 17 -75 -39 -90 -162 -43 -151 -38 -171 -83 -34 -78 -33
-232 2 -272 17 -19 6 -33 -43 -54 -118 -51 -172 -140 -173 -281 0 -85 0 -85
51 -170 36 -59 49 -89 43 -100 -5 -9 -42 -33 -84 -53 -71 -36 -76 -40 -84 -80
-5 -23 -8 -80 -8 -125 l1 -84 73 -65 c39 -36 72 -73 72 -82 0 -9 -25 -41 -56
-71 -95 -94 -102 -124 -54 -240 31 -75 28 -96 -9 -82 -25 9 13 -45 63 -90 50
-46 73 -51 248 -51 110 -1 142 2 149 14 16 22 2 134 -29 249 -16 58 -35 126
-42 152 -28 106 18 485 95 791 110 431 285 812 453 984 80 82 95 110 79 148
-27 67 -211 115 -354 93z m192 -63 c80 -36 114 -78 83 -102 -15 -12 -23 -11
-113 15 -134 39 -193 34 -220 -19 -34 -64 -17 -112 74 -211 l52 -57 -25 -7
c-77 -19 -206 127 -206 233 0 32 26 93 48 110 29 24 83 44 152 58 72 14 83 13
155 -20z m-13 -137 c27 -13 39 -43 29 -70 -12 -33 -30 -45 -78 -56 -46 -10
-109 6 -130 33 -13 19 -1 66 23 86 32 26 112 30 156 7z m-225 -280 c51 -13 69
-30 50 -47 -11 -8 -28 -6 -70 8 -31 11 -71 18 -88 16 -74 -10 -149 -93 -149
-165 0 -37 22 -84 59 -124 l26 -28 -25 6 c-72 20 -107 63 -117 144 -4 37 0 60
15 94 44 100 152 134 299 96z m-17 -108 c16 -8 17 -15 8 -52 -11 -53 -42 -123
-57 -132 -18 -11 -74 12 -93 38 -39 54 -22 131 32 142 14 3 30 7 35 9 21 7 57
5 75 -5z m-123 -327 c9 -23 -8 -32 -88 -49 -150 -31 -220 -83 -218 -164 0 -56
20 -94 82 -161 69 -75 65 -93 -18 -65 -91 32 -131 94 -129 206 1 76 25 139 73
187 70 69 277 101 298 46z m-73 -136 c35 -25 8 -183 -36 -211 -22 -14 -66 1
-84 29 -45 68 -30 142 36 177 41 21 60 23 84 5z m-87 -360 c26 -9 36 -32 20
-45 -7 -6 -41 -18 -77 -27 -122 -31 -174 -85 -174 -181 0 -87 48 -136 135
-138 l50 -1 -23 -19 c-34 -28 -110 -18 -149 20 -58 55 -86 135 -68 198 18 66
135 174 210 194 37 10 43 10 76 -1z m-23 -159 c3 -13 8 -55 11 -94 l6 -72 -29
-10 c-55 -19 -134 42 -126 96 12 72 126 138 138 80z m-7 -356 c8 -5 -5 -21
-41 -50 -65 -52 -94 -85 -111 -126 -35 -84 25 -165 134 -181 82 -11 91 -16 51
-31 -72 -26 -146 -10 -204 44 -62 58 -84 162 -48 232 32 65 177 139 219 112z
m0 -181 c32 -48 30 -121 -4 -121 -25 0 -70 38 -83 69 -9 23 -9 34 1 53 25 49
53 48 86 -1z"/>
<path d="M2935 6870 c-3 -5 -8 -26 -11 -46 -2 -23 -35 -85 -88 -168 -129 -203
-158 -257 -224 -412 -59 -139 -110 -194 -179 -194 -41 0 -48 7 -94 99 -37 76
-40 85 -28 110 7 14 143 156 303 314 258 256 285 286 239 263 -77 -39 -152
-101 -318 -270 -82 -83 -178 -175 -212 -204 -82 -69 -87 -92 -44 -216 31 -92
38 -126 24 -126 -5 0 -30 14 -58 30 -52 31 -80 37 -90 21 -3 -6 22 -39 55 -74
65 -70 111 -95 221 -120 113 -25 120 9 16 72 -90 54 -78 65 83 75 41 2 83 8
93 11 30 12 63 83 125 267 33 97 82 223 109 280 75 157 117 264 110 282 -7 18
-23 21 -32 6z"/>
<path d="M1705 6621 c-30 -18 -42 -30 -125 -131 -155 -186 -324 -487 -444
-792 -106 -269 -195 -633 -221 -903 -15 -159 -20 -291 -20 -495 0 -260 10
-330 52 -381 24 -28 30 -30 67 -24 111 17 257 170 241 252 -2 10 -4 28 -4 40
-1 29 -43 76 -110 125 -31 23 -64 50 -74 60 -46 47 -61 146 -31 197 25 42 96
83 233 134 135 51 203 95 220 143 26 73 3 171 -54 229 -16 15 -72 56 -124 90
-53 34 -105 73 -117 86 -50 58 -57 149 -14 194 24 26 88 53 195 84 141 41 246
126 306 248 44 87 48 177 16 348 -34 186 -30 225 38 357 63 123 69 158 28 158
-16 0 -41 -8 -58 -19z"/>
<path d="M2153 5874 c-16 -41 144 -141 186 -115 35 22 -28 86 -112 115 -59 20
-66 20 -74 0z"/>
<path d="M2087 5608 c-23 -18 -31 -69 -14 -92 7 -10 26 -20 41 -21 33 -4 59
30 52 70 -9 51 -43 69 -79 43z"/>
<path d="M2020 5374 c-16 -19 -30 -43 -30 -53 0 -24 41 -61 69 -61 32 0 54 55
40 103 -13 50 -41 54 -79 11z"/>
<path d="M1982 5164 c-55 -38 7 -119 73 -94 35 13 34 61 -1 89 -32 25 -43 26
-72 5z"/>
<path d="M1983 4957 c-11 -5 -26 -20 -32 -34 -22 -47 32 -92 86 -72 27 10 34
41 16 77 -16 34 -38 43 -70 29z"/>
<path d="M1991 4726 c-19 -20 -22 -33 -20 -87 1 -35 6 -80 10 -99 13 -59 18
-135 10 -149 -6 -9 -28 -2 -89 30 -81 42 -112 46 -112 11 0 -37 131 -134 220
-165 53 -18 63 -14 166 71 72 59 99 94 90 118 -9 24 -48 11 -123 -43 -35 -25
-67 -42 -71 -38 -4 4 -7 83 -7 177 0 156 -2 171 -19 184 -26 19 -29 18 -55
-10z"/>
<path d="M4328 4486 c-60 -25 -128 -71 -270 -183 -48 -38 -124 -90 -170 -117
-138 -82 -208 -131 -311 -220 -54 -46 -171 -135 -260 -197 -177 -123 -311
-224 -341 -258 -14 -16 -17 -24 -8 -33 26 -26 201 84 1067 670 303 205 442
316 432 346 -7 21 -80 17 -139 -8z"/>
<path d="M3755 4478 c-16 -6 -74 -40 -128 -77 -54 -36 -115 -75 -135 -87 -20
-11 -38 -28 -40 -37 -2 -9 -41 -43 -87 -76 -137 -98 -168 -131 -125 -131 32 0
300 141 365 192 112 87 205 185 205 214 0 16 -13 17 -55 2z"/>
<path d="M2208 4259 c-9 -5 -45 -43 -78 -84 -41 -51 -68 -75 -82 -75 -14 0
-50 28 -95 75 -79 80 -106 91 -125 50 -15 -34 -1 -63 54 -108 51 -42 158 -97
188 -97 24 0 158 133 185 184 29 53 2 84 -47 55z"/>
<path d="M2258 4057 c-14 -13 -38 -44 -54 -68 -37 -57 -44 -61 -71 -43 -22 14
-24 13 -35 -11 -17 -37 -40 -39 -110 -6 -85 40 -128 44 -128 13 0 -10 22 -32
53 -52 58 -38 193 -100 219 -100 25 0 73 45 122 114 66 93 80 124 67 152 -13
30 -31 30 -63 1z"/>
<path d="M4021 3954 c-39 -17 -210 -130 -334 -222 -85 -63 -88 -66 -85 -101 3
-33 5 -36 32 -34 44 4 160 80 373 246 67 53 105 99 91 112 -12 13 -46 12 -77
-1z"/>
<path d="M1000 3691 c-108 -35 -162 -73 -144 -102 9 -16 36 -10 149 30 150 54
146 52 143 70 -5 23 -80 25 -148 2z"/>
<path d="M1185 3592 c-109 -21 -345 -117 -377 -154 -23 -27 -18 -44 13 -40 74
8 428 146 444 173 12 18 -34 30 -80 21z"/>
<path d="M2322 3588 c-255 -33 -462 -244 -446 -454 15 -202 141 -425 298 -526
204 -131 481 -94 663 88 201 203 194 552 -15 758 -109 108 -301 159 -500 134z
m218 -77 c131 -41 259 -139 321 -246 83 -143 82 -329 -2 -452 -87 -126 -268
-215 -439 -214 -95 0 -95 0 -165 24 -107 37 -193 128 -234 250 -51 148 -23
285 79 387 88 88 213 123 312 88 67 -23 148 -77 206 -136 160 -165 105 -367
-103 -380 -93 -5 -167 22 -223 82 -74 80 -65 164 22 205 72 33 127 26 146 -19
14 -35 8 -56 -26 -93 -24 -26 -25 -30 -11 -45 13 -12 21 -13 41 -4 28 13 73
83 82 130 6 27 1 37 -29 67 -30 30 -42 35 -81 35 -98 0 -231 -80 -256 -155
-28 -84 53 -198 162 -230 196 -57 408 43 438 207 16 88 -28 206 -103 275 -132
122 -332 142 -522 52 -61 -28 -160 -124 -181 -175 -14 -34 -17 -36 -32 -21
-22 23 -19 75 8 128 28 55 149 176 212 213 94 55 253 66 378 27z"/>
<path d="M4044 3521 c-35 -15 -84 -83 -100 -138 -20 -70 -16 -175 9 -236 42
-100 127 -141 252 -120 68 11 70 10 79 -52 6 -48 25 -84 74 -139 48 -55 80
-65 194 -59 115 5 135 -4 168 -75 39 -85 70 -121 111 -132 78 -21 199 15 199
60 0 13 7 20 19 20 31 0 49 -25 61 -86 8 -39 22 -67 45 -93 30 -32 38 -36 82
-34 40 1 190 49 181 58 -2 2 -28 -1 -58 -7 -85 -16 -169 -6 -191 21 -40 49
-53 178 -25 245 13 32 51 64 62 53 3 -3 6 -40 6 -83 1 -125 23 -163 98 -170
51 -5 97 18 164 80 28 25 54 46 59 46 21 0 -32 -104 -79 -153 -22 -25 -24 -28
-8 -27 33 4 68 0 62 -6 -4 -3 4 -36 16 -72 30 -87 59 -106 160 -105 126 1 201
48 251 157 39 85 67 174 56 180 -11 7 -54 14 -131 21 -138 13 -181 24 -263 68
-45 25 -163 72 -263 105 -448 150 -875 377 -1079 573 -33 32 -73 67 -88 79
-31 25 -91 34 -123 21z m144 -130 c20 -1 41 -63 36 -105 -10 -84 -55 -126
-105 -100 -47 24 -64 81 -44 144 9 27 61 69 82 65 10 -2 24 -4 31 -4z m-133
-230 c37 -28 66 -35 122 -26 47 7 91 40 119 90 18 31 25 13 15 -39 -12 -64
-71 -106 -151 -106 -107 0 -180 68 -180 167 l0 38 24 -51 c13 -28 36 -60 51
-73z m523 -72 c67 -33 94 -62 88 -96 -12 -63 -45 -78 -117 -56 -47 14 -71 32
-107 77 -26 34 -28 63 -6 95 20 29 51 24 142 -20z m-152 -138 c73 -85 181 -95
256 -24 27 26 58 26 58 1 0 -7 -11 -31 -23 -53 -28 -50 -75 -74 -145 -75 -146
-1 -255 122 -219 250 l9 35 16 -47 c8 -26 30 -65 48 -87z m551 -46 c45 -31 54
-133 15 -168 -58 -52 -142 -2 -142 85 0 73 73 121 127 83z m-167 -92 c1 -122
59 -154 188 -106 23 9 45 14 47 11 3 -3 0 -19 -6 -37 -14 -38 -59 -61 -139
-68 -46 -4 -61 -1 -90 19 -52 35 -71 80 -60 148 20 117 60 139 60 33z m632
-83 c10 -12 18 -36 18 -54 0 -75 -138 -93 -212 -28 -22 19 -23 51 -2 80 23 33
47 39 117 31 46 -5 66 -13 79 -29z m385 -124 c30 -10 46 -58 27 -84 -17 -25
-73 -45 -123 -44 -96 2 -136 61 -80 120 15 17 29 20 87 18 37 -2 77 -6 89 -10z
m-171 -147 c65 -68 141 -52 208 44 15 22 15 22 15 -11 1 -19 -6 -49 -15 -67
-41 -86 -201 -90 -294 -7 -54 48 -64 102 -30 157 l23 37 33 -63 c19 -34 46
-75 60 -90z"/>
<path d="M1340 3462 c-74 -10 -179 -35 -262 -63 -118 -39 -303 -130 -346 -168
-32 -29 -43 -61 -21 -61 6 0 113 40 238 89 259 102 256 101 417 140 66 17 134
35 150 42 l29 11 -25 9 c-22 9 -120 10 -180 1z"/>
<path d="M8165 3160 c-81 -22 -129 -48 -271 -146 -444 -303 -1109 -489 -1581
-440 -75 8 -113 -2 -113 -30 0 -8 11 -19 25 -24 42 -16 194 -37 280 -39 202
-4 725 132 992 259 56 26 128 56 160 65 64 18 119 48 263 140 93 59 161 95
180 95 21 0 8 -39 -32 -101 -22 -35 -84 -134 -136 -219 -173 -282 -232 -361
-374 -497 -127 -123 -171 -179 -158 -204 25 -46 64 -13 201 168 160 212 409
592 572 874 15 25 38 56 52 69 46 44 25 54 -60 30z"/>
<path d="M1122 3105 c-17 -14 -54 -62 -83 -108 -62 -95 -194 -353 -201 -391
-10 -49 63 -68 197 -53 129 14 216 19 240 13 25 -6 27 -10 22 -42 -3 -19 -20
-72 -38 -117 -43 -110 -170 -489 -166 -494 8 -7 203 295 249 385 47 91 48 94
42 161 -4 45 -3 75 6 90 l12 23 23 -22 c13 -12 29 -35 36 -51 11 -27 9 -33
-20 -67 -39 -45 -63 -97 -107 -226 -44 -128 -44 -159 -4 -176 33 -14 148 -8
208 9 18 5 33 9 35 9 1 0 47 7 101 17 95 17 100 17 132 0 34 -18 50 -43 37
-56 -10 -9 -87 -20 -233 -34 -36 -3 -85 -8 -110 -10 -25 -3 -76 -7 -115 -10
-139 -10 -190 -16 -198 -24 -13 -13 43 -18 222 -19 132 -1 184 3 253 18 114
26 174 28 195 7 15 -15 15 -22 -1 -94 -32 -141 -34 -157 -30 -248 3 -49 6 -99
9 -110 2 -11 4 -26 4 -33 3 -47 119 -24 391 78 58 22 121 42 140 45 19 3 36 8
38 10 8 8 -13 28 -126 122 -333 276 -646 623 -755 838 -13 28 -36 78 -50 113
-29 70 -195 343 -257 421 -22 28 -47 51 -54 51 -8 0 -28 -11 -44 -25z m67
-124 c26 -23 31 -72 10 -97 -8 -10 -44 -41 -81 -71 -83 -65 -104 -100 -82
-132 21 -29 62 -27 170 9 49 16 96 30 106 30 15 0 38 -45 38 -76 0 -27 -118
-35 -290 -20 -19 2 -52 -3 -74 -11 -56 -19 -75 -17 -82 11 -9 37 25 89 154
234 31 35 57 74 58 87 2 57 32 72 73 36z m82 -163 c3 -29 -3 -44 -27 -65 -30
-28 -60 -29 -73 -4 -8 14 -4 24 21 50 31 31 77 42 79 19z m425 -612 c24 -32
44 -64 44 -71 0 -18 -35 -28 -57 -17 -20 10 -23 10 -140 -13 -176 -35 -200 -9
-109 119 71 98 76 109 78 150 l1 35 70 -72 c38 -40 89 -98 113 -131z m299
-337 c6 -28 0 -123 -14 -219 -3 -25 -5 -55 -3 -67 l3 -21 52 22 c56 25 170 56
205 56 30 0 35 -16 9 -32 -34 -23 -257 -92 -317 -99 -14 -2 -30 0 -37 4 -16
10 -9 109 18 232 12 55 22 109 23 120 1 24 25 45 42 38 7 -3 16 -18 19 -34z
m134 -133 c15 -8 33 -21 40 -29 33 -41 -78 -67 -114 -27 -15 17 -16 24 -7 45
13 29 39 32 81 11z"/>
<path d="M7790 2821 c-63 -20 -199 -85 -350 -166 -193 -104 -322 -153 -450
-168 -238 -29 -315 -41 -375 -59 -125 -38 -124 -58 3 -53 288 12 674 105 946
229 55 25 102 43 105 41 2 -3 -35 -55 -82 -117 -88 -116 -111 -143 -175 -213
-112 -122 -134 -159 -88 -151 75 14 131 68 240 233 46 71 125 176 176 234 100
114 152 187 144 200 -8 13 -32 10 -94 -10z"/>
<path d="M2990 2582 c-103 -8 -113 -37 -75 -217 8 -38 17 -85 20 -104 3 -19
10 -41 15 -50 11 -20 16 4 25 101 12 128 23 176 43 187 9 4 49 9 87 10 102 3
138 18 113 48 -16 20 -131 33 -228 25z"/>
<path d="M3179 2389 c-57 -9 -85 -23 -100 -50 -21 -41 13 -209 49 -242 15 -14
21 -15 36 -4 16 12 16 16 -3 77 -41 130 -22 152 130 151 48 -1 100 4 115 10
l29 11 -25 13 c-24 14 -94 30 -155 38 -16 2 -51 0 -76 -4z"/>
<path d="M3503 2300 c-17 -4 -43 -17 -58 -28 -15 -12 -43 -24 -64 -28 -59 -11
-111 -35 -112 -53 -5 -64 6 -168 24 -233 12 -40 15 -43 47 -43 35 0 35 0 34
45 0 25 -4 66 -9 93 -5 30 -4 47 3 47 5 0 38 -21 72 -47 144 -112 204 -154
226 -159 33 -8 74 3 74 21 0 15 -86 82 -238 185 -50 34 -81 62 -82 73 0 18 39
38 128 67 42 13 53 29 30 47 -22 17 -42 20 -75 13z"/>
<path d="M5470 2083 c-39 -7 -55 -28 -95 -117 -20 -45 -45 -88 -56 -94 -22
-14 -21 -17 -39 73 -28 136 -67 108 -77 -55 -5 -80 -3 -91 26 -162 33 -79 63
-118 76 -98 4 6 4 42 0 81 -9 84 -2 86 69 25 137 -117 155 -119 311 -40 60 31
155 74 210 95 210 79 338 145 392 201 l28 29 -75 -32 c-41 -17 -93 -39 -115
-49 -382 -169 -466 -204 -557 -230 l-66 -18 -71 73 c-67 70 -70 75 -61 105 5
18 15 39 22 48 26 31 98 54 186 58 180 8 268 14 292 18 14 3 45 7 70 10 25 3
54 8 65 10 230 44 247 46 281 37 36 -10 64 -6 64 10 0 22 -44 27 -180 22 -187
-7 -327 -7 -520 -1 -85 3 -166 3 -180 1z"/>
<path d="M5051 1892 c-14 -27 -4 -110 20 -159 22 -46 30 -51 49 -28 23 28 9
153 -23 193 -14 18 -35 15 -46 -6z"/>
<path d="M7115 1858 c-90 -93 -259 -213 -475 -338 -168 -97 -603 -312 -635
-314 -22 -1 -38 -16 -16 -16 5 0 12 -11 15 -24 8 -33 119 -87 246 -121 131
-35 171 -33 204 6 14 17 26 40 27 52 3 123 9 160 25 178 23 26 39 24 119 -14
39 -19 93 -41 120 -50 107 -34 180 4 170 89 -2 16 -6 70 -10 119 -10 148 5
158 175 124 123 -25 157 -28 175 -15 19 14 11 42 -16 57 -11 5 -43 12 -72 14
-130 12 -158 17 -178 34 -12 10 -19 23 -15 29 4 6 46 40 93 76 105 79 123 77
123 -9 0 -47 4 -60 30 -87 l29 -33 0 45 c0 90 -48 232 -80 237 -8 2 -32 -16
-54 -39z m-263 -378 c17 -81 16 -183 -2 -205 -16 -19 -62 -16 -150 10 -71 22
-178 75 -184 92 -7 16 42 47 193 125 63 32 118 55 121 51 4 -4 14 -37 22 -73z
m-411 -161 c19 -37 -1 -209 -28 -231 -18 -14 -174 13 -241 42 -41 18 -66 50
-45 57 5 2 38 22 72 44 68 44 143 79 171 79 9 0 23 7 30 15 17 20 27 19 41 -6z"/>
<path d="M3965 1850 c-40 -44 3 -92 67 -74 61 18 45 83 -22 89 -17 1 -35 -4
-45 -15z"/>
<path d="M4817 1795 c-43 -15 -41 -13 -55 -41 -17 -32 1 -49 48 -47 79 3 116
55 65 89 -16 10 -27 10 -58 -1z"/>
<path d="M4254 1782 c-23 -15 -23 -41 -1 -57 37 -26 97 -17 97 16 0 34 -65 62
-96 41z"/>
<path d="M4526 1765 c-45 -41 -31 -65 39 -65 18 0 43 8 56 19 22 18 22 19 6
45 -23 34 -65 35 -101 1z"/>
<path d="M835 1728 c-47 -27 -68 -81 -46 -117 13 -20 60 -17 82 6 29 29 37 92
14 109 -22 17 -24 17 -50 2z"/>
<path d="M2707 1693 c-4 -3 -7 -14 -7 -24 0 -51 -123 -237 -249 -374 -69 -76
-110 -139 -99 -151 31 -30 241 163 296 272 62 124 104 284 74 284 -5 0 -12 -3
-15 -7z"/>
<path d="M2807 1558 c-12 -13 -36 -59 -52 -103 -27 -72 -39 -89 -118 -169 -99
-100 -122 -129 -114 -150 14 -36 105 21 204 128 46 48 66 80 87 137 49 131 45
209 -7 157z"/>
<path d="M3710 1461 c-43 -13 -83 -38 -130 -81 -75 -68 -130 -92 -245 -105
-108 -12 -134 -18 -164 -36 -42 -26 -42 -63 0 -88 56 -34 321 -106 529 -144
14 -3 36 -8 50 -11 43 -10 226 -39 320 -51 105 -12 130 -15 222 -21 179 -12
601 -5 627 10 3 2 40 7 81 10 122 12 319 51 575 116 219 56 262 71 250 91 -10
16 -275 196 -335 227 -60 31 -70 34 -132 29 -82 -5 -113 -24 -227 -135 -124
-121 -164 -124 -276 -16 -89 83 -139 118 -191 131 -86 21 -290 -4 -349 -43
-13 -8 -51 -51 -85 -94 -94 -120 -151 -154 -211 -129 -40 16 -78 83 -93 166
-13 63 -34 111 -67 145 -31 33 -41 38 -80 37 -24 0 -55 -4 -69 -8z"/>
<path d="M520 1430 c-23 -23 -27 -82 -7 -98 16 -13 59 -5 74 14 6 9 10 32 8
51 -5 54 -39 69 -75 33z"/>
<path d="M2902 1373 c-46 -59 -100 -148 -108 -177 -5 -22 -3 -26 16 -26 38 0
87 46 119 113 16 34 31 69 32 77 6 61 -17 66 -59 13z"/>
<path d="M166 1174 c-14 -15 -26 -37 -26 -50 0 -25 34 -54 62 -54 23 0 48 38
48 75 0 58 -40 72 -84 29z"/>
<path d="M6944 1045 c-24 -37 -12 -93 23 -101 37 -10 62 23 57 72 -5 58 -50
74 -80 29z"/>
</g>
</svg>
